<?xml version="1.0" encoding="UTF-8" standalone="no"?>
<svg
   xmlns:svg="http://www.w3.org/2000/svg"
   xmlns="http://www.w3.org/2000/svg"
   version="1.0"
   width="500"
   height="500">

  <!--white background-->
  <!--<g class="layout-background">
    <rect
      x="0"
      y="0"
      width="500"
      height="500"
      style="fill:#ffffff; fill-opacity:1;" />
  </g>-->

  <!-- The limit system -->
  <!--<g class="layout-limit">
    <defs>
      <style type="text/css"><![CDATA[
        .layout-limit path {
          fill:none;
          stroke:#ff0000;
          stroke-width:1;
          stroke-linecap:butt;
          stroke-linejoin:miter;
          stroke-miterlimit:4;
          stroke-opacity:1;
          stroke-dasharray:2, 1;
          stroke-dashoffset:0
        }
      ]]></style>
    </defs>
    <path d="m 150,0 v1000" />
    <path d="m 350,0 v1000" />
    <path d="m 0,150 h1000" />
    <path d="m 0,350 h1000" />
  </g>-->

  <!--The grid system -->
  <!--<g class="layout-grid">
    <defs>
      <style type="text/css"><![CDATA[
        .layout-grid path {
          stroke:#000000;
          stroke-opacity:0.3;
        }

        .layout-grid path.sub-line {
          stroke-opacity:0.6;
        }

        .layout-grid path.main-line {
          stroke-opacity:0.8;
        }
      ]]></style>
    </defs>
    <g>
      <path d="M  10,0 V 800" />
      <path d="M  20,0 V 800" />
      <path d="M  30,0 V 800" />
      <path d="M  40,0 V 800" />
      <path d="M  50,0 V 800" class="sub-line" />
      <path d="M  60,0 V 800" />
      <path d="M  70,0 V 800" />
      <path d="M  80,0 V 800" />
      <path d="M  90,0 V 800" />
      <path d="M 100,0 V 800" class="main-line" />
      <path d="M 110,0 V 800" />
      <path d="M 120,0 V 800" />
      <path d="M 130,0 V 800" />
      <path d="M 140,0 V 800" />
      <path d="M 150,0 V 800" class="sub-line" />
      <path d="M 160,0 V 800" />
      <path d="M 170,0 V 800" />
      <path d="M 180,0 V 800" />
      <path d="M 190,0 V 800" />
      <path d="M 200,0 V 800" class="main-line" />
      <path d="M 210,0 V 800" />
      <path d="M 220,0 V 800" />
      <path d="M 230,0 V 800" />
      <path d="M 240,0 V 800" />
      <path d="M 250,0 V 800" class="sub-line" />
      <path d="M 260,0 V 800" />
      <path d="M 270,0 V 800" />
      <path d="M 280,0 V 800" />
      <path d="M 290,0 V 800" />
      <path d="M 300,0 V 800" class="main-line" />
      <path d="M 310,0 V 800" />
      <path d="M 320,0 V 800" />
      <path d="M 330,0 V 800" />
      <path d="M 340,0 V 800" />
      <path d="M 350,0 V 800" class="sub-line" />
      <path d="M 360,0 V 800" />
      <path d="M 370,0 V 800" />
      <path d="M 380,0 V 800" />
      <path d="M 390,0 V 800" />
      <path d="M 400,0 V 800" class="main-line" />
      <path d="M 410,0 V 800" />
      <path d="M 420,0 V 800" />
      <path d="M 430,0 V 800" />
      <path d="M 440,0 V 800" />
      <path d="M 450,0 V 800" class="sub-line" />
      <path d="M 460,0 V 800" />
      <path d="M 470,0 V 800" />
      <path d="M 480,0 V 800" />
      <path d="M 490,0 V 800" />
      <path d="M 500,0 V 800" class="main-line" />
      <path d="M 510,0 V 800" />
      <path d="M 520,0 V 800" />
      <path d="M 530,0 V 800" />
      <path d="M 540,0 V 800" />
      <path d="M 550,0 V 800" class="sub-line" />
      <path d="M 560,0 V 800" />
      <path d="M 570,0 V 800" />
      <path d="M 580,0 V 800" />
      <path d="M 590,0 V 800" />
    </g>
    <g>
      <path d="M 0, 10 H 600" />
      <path d="M 0, 20 H 600" />
      <path d="M 0, 30 H 600" />
      <path d="M 0, 40 H 600" />
      <path d="M 0, 50 H 600" class="sub-line" />
      <path d="M 0, 60 H 600" />
      <path d="M 0, 70 H 600" />
      <path d="M 0, 80 H 600" />
      <path d="M 0, 90 H 600" />
      <path d="M 0,100 H 600" class="main-line" />
      <path d="M 0,110 H 600" />
      <path d="M 0,120 H 600" />
      <path d="M 0,130 H 600" />
      <path d="M 0,140 H 600" />
      <path d="M 0,150 H 600" class="sub-line" />
      <path d="M 0,160 H 600" />
      <path d="M 0,170 H 600" />
      <path d="M 0,180 H 600" />
      <path d="M 0,190 H 600" />
      <path d="M 0,200 H 600" class="main-line" />
      <path d="M 0,210 H 600" />
      <path d="M 0,220 H 600" />
      <path d="M 0,230 H 600" />
      <path d="M 0,240 H 600" />
      <path d="M 0,250 H 600" class="sub-line" />
      <path d="M 0,260 H 600" />
      <path d="M 0,270 H 600" />
      <path d="M 0,280 H 600" />
      <path d="M 0,290 H 600" />
      <path d="M 0,300 H 600" class="main-line" />
      <path d="M 0,310 H 600" />
      <path d="M 0,320 H 600" />
      <path d="M 0,330 H 600" />
      <path d="M 0,340 H 600" />
      <path d="M 0,350 H 600" class="sub-line" />
      <path d="M 0,360 H 600" />
      <path d="M 0,370 H 600" />
      <path d="M 0,380 H 600" />
      <path d="M 0,390 H 600" />
      <path d="M 0,400 H 600" class="main-line" />
      <path d="M 0,410 H 600" />
      <path d="M 0,420 H 600" />
      <path d="M 0,430 H 600" />
      <path d="M 0,440 H 600" />
      <path d="M 0,450 H 600" class="sub-line" />
      <path d="M 0,460 H 600" />
      <path d="M 0,470 H 600" />
      <path d="M 0,480 H 600" />
      <path d="M 0,490 H 600" />
      <path d="M 0,500 H 600" class="main-line" />
      <path d="M 0,510 H 600" />
      <path d="M 0,520 H 600" />
      <path d="M 0,530 H 600" />
      <path d="M 0,540 H 600" />
      <path d="M 0,550 H 600" class="sub-line" />
      <path d="M 0,560 H 600" />
      <path d="M 0,570 H 600" />
      <path d="M 0,580 H 600" />
      <path d="M 0,590 H 600" />
      <path d="M 0,600 H 600" class="main-line" />
      <path d="M 0,610 H 600" />
      <path d="M 0,620 H 600" />
      <path d="M 0,630 H 600" />
      <path d="M 0,640 H 600" />
      <path d="M 0,650 H 600" class="sub-line" />
      <path d="M 0,660 H 600" />
      <path d="M 0,670 H 600" />
      <path d="M 0,680 H 600" />
      <path d="M 0,690 H 600" />
      <path d="M 0,700 H 600" class="main-line" />
      <path d="M 0,710 H 600" />
      <path d="M 0,720 H 600" />
      <path d="M 0,730 H 600" />
      <path d="M 0,740 H 600" />
      <path d="M 0,750 H 600" class="sub-line" />
      <path d="M 0,760 H 600" />
      <path d="M 0,770 H 600" />
      <path d="M 0,780 H 600" />
      <path d="M 0,790 H 600" />
    </g>
  </g>-->

  <path d="M7,12
  q 17,-3 23,1
  q -4,-2 3,-3
  q 17,0 29,2
  l 3,5
  l 1,-4
  q 14,0 25,-4
  q 5,-1 8,2
  q 17,18 25,16
  q 11,3 25,-16
  q 4,-6 10,-3
  q 11,0 23,4
  q 10,-2 14,0
  q 5,7 13,9
  q 5,8 5,14
  q 7,-9 8,-14
  q 21,5 23,-2
  q 4,8 14,8
  q 4,15 15,-1
  q 23,-5 25,-15
  t 20,1
  c 25,1 10,13 41,-2
  s 15,10 43,-2
  s 27,11 39,-5
  t 3,3
  t 10,-2
  t 41,2
  q 3,2 -2,15
  t -12,31
  s -5,10 8,-7
  t -6,22
  t 8,-1
  q 0,2 -5,15
  t 7,36
  l -5,7
  l 5,1
  l 2,11
  l -8,8
  l 8,1
  l -5,15
  l 5,25
  q -7,7 -6,20
  q 7,-1 4,18
  q -5,4 1,20
  q 4,4 -3,27
  q -6,10 2,6
  l -4,6
  l 3,-1
  l 1,6
  l 3,-1
  l -5,5
  l 4,5
  t -8,12
  t 7,10
  q -4,0 2,18
  q -1,4 -9,11
  q 8,7 13,1
  q 4,2 -1,13
  q -12,13 -12,23
  q 0,12 -3,20
  q 13,-2 15,5
  q 4,2 -6,30
  q -7,23 1,31
  q 6,21 1,23




  q -17,3 -23,-1
  q 4,2 -3,3
  q -17,0 -29,-2
  l -3,-5
  l -1,4
  q -14,0 -25,4
  q -5,1 -8,-2
  q -17,-18 -25,-16
  q -11,-3 -25,16
  q -4,6 -10,3
  q -11,0 -23,-4
  q -10,2 -14,0
  q -5,-7 -13,-9
  q -5,-8 -5,-14
  q -7,9 -8,14
  q -21,-5 -23,2
  q -4,-8 -14,-8
  q -4,-15 -15,1
  q -23,5 -25,15
  t -20,-1
  c -25,-1 -10,-13 -41,2
  s -15,-10 -43,2
  s -27,-11 -39,5
  t -3,-3
  t -10,2
  t -41,-2
  q -3,-2 2,-15
  t 12,-31
  s 5,-10 -8,7
  t 6,-22
  t -8,1
  q 0,-2 5,-15
  t -7,-36
  l 5,-7
  l -5,-1
  l -2,-11
  l 8,-8
  l -8,-1
  l 5,-15
  l -5,-25
  q 7,-7 6,-20
  q -7,1 -4,-18
  q 5,-4 -1,-20
  q -4,-4 3,-27
  q 6,-10 -2,-6
  l 4,-6
  l -3,1
  l -1,-6
  l -3,1
  l 5,-5
  l -4,-5
  t 8,-12
  t -7,-10
  q 4,-0 -2,-18
  q 1,-4 9,-11
  q -8,-7 -13,-1
  q -4,-2 1,-13
  q 12,-13 12,-23
  q -0,-12 3,-20
  q -13,2 -15,-5
  q -4,-2 6,-30
  q 7,-23 -1,-31
  q -6,-21 -1,-23
    z"
  stroke="#000000"
  />

  <!--<path d="M496,493
  q -17,3 -23,-1
  q 4,2 -3,3
  q -17,-0 -29,-2
  l -100,-100
    z"
  stroke="#000000"
  />-->


  <!--<path d="M10,9
    q-2,-6 8,-7
    q1,2 18,1
    q11,10 20,13
    q2,2 15,-5
    q-1,3 19,-5
    q0,-5 22,-6
    q-5,11 25,9
    q0,5 7,20
    l86,-25
    l358,0
    v800
    h-563
    z"
  stroke="#000000"
  />-->

</svg>
