<svg xmlns="http://www.w3.org/2000/svg" viewBox="0 0 204 230.7">
  <g stroke="#000">
    <g fill="none" stroke-width="3" stroke-linecap="round" stroke-linejoin="round">
      <path d="m 1025,723.39181 c 0,0 -1.9272,-13.2367 -0.4652,-17.03787 1.462,-3.80117 9.8931,-13.51007 10.7703,-13.94867 0.4386,-0.2193 11.2882,-8.62573 22.558,-18.29313 11.2699,-9.6674 22.9601,-20.59576 25.08,-25.85892 4.2398,-10.52632 7.7273,-28.23419 6.4115,-27.6494 -1.3158,0.5848 -9.9686,8.19735 -10.8458,11.55992 -0.8772,3.36257 -5.7018,16.52047 -10.0877,18.56725 -4.386,2.04679 -21.9299,19.44445 -21.9299,19.44445 l -18.1286,14.76608 c 0,0 -8.772,9.64912 -9.6491,16.52047 -0.5244,4.10781 1.0411,12.13434 2.8538,17.33267 1.2194,3.49717 2.5507,5.71432 3.4327,4.59715 z" transform="matrix(.62985 0 0 .62363 -552.284 -243.14)"/>
      <path d="m 1089.1813,620.32164 c 0,0 -8.6257,-4.53217 -9.0643,-6.28655 -0.4386,-1.75439 -2.6316,-10.23392 1.9005,-10.52632 4.5322,-0.2924 5.9942,1.90059 5.7018,1.02339 -0.2924,-0.87719 -5.5556,-6.43275 -5.5556,-6.43275 0,0 -3.0701,-5.26315 -1.9005,-5.26315 1.1696,0 -3.2164,1.02339 1.1696,0 4.3859,-1.0234 16.8128,1.31579 16.8128,1.31579 0,0 7.7486,-2.04679 5.2632,-7.45614 -2.4854,-5.40936 -22.3684,-44.73685 -24.4152,-63.1579 -2.0468,-18.42105 -2.0468,-92.83626 -2.0468,-92.83626 0,0 -13.4503,-29.38596 -31.2866,-22.66082 -17.8362,6.72515 -62.13447,27.33919 -62.13447,27.33919 0,0 -36.5497,10.38011 -45.17544,10.38011 -8.62573,0 -29.38596,-0.2924 -30.26315,-1.31579 -0.8772,-1.02339 -22.07603,4.23977 -22.07603,4.23977 0,0 -5.11696,1.90058 -2.63158,8.77193 2.48538,6.87134 10.08772,16.37427 13.4503,20.02924 3.36257,3.65497 21.63742,16.95906 22.22222,15.05848 0.58479,-1.90059 -3.21638,6.28655 -2.04678,9.06433 1.16959,2.77777 4.23976,13.45029 2.63157,15.35087 -1.60818,1.90059 -18.27485,15.93568 -18.27485,32.60234 0,16.66667 -2.78987,16.16897 -2.42628,18.93465 0.27746,2.11053 1.25669,11.47471 6.08125,8.55073 4.82456,-2.92397 4.23977,2.92398 4.23977,2.92398 0,0 0,11.54971 5.26315,11.11111 5.26316,-0.4386 3.80117,11.25731 3.80117,11.25731 0,0 2.63158,2.63158 3.50878,2.19298 0.87719,-0.43859 2.77777,0.1462 3.07017,0.731 0.1462,0.29239 -0.73273,2.27868 0.0161,3.85894 0.8015,1.69142 -0.20318,3.42035 -0.20318,3.42035 0,0 -8.73108,-0.26175 -10.48546,10.55696 -1.75439,10.81872 -2.04679,17.83626 -1.02339,20.76024 1.02339,2.92397 3.94736,19.29824 2.48538,24.269 -1.46199,4.97076 -6.72515,16.95907 -1.1696,27.92398 5.55556,10.96491 7.45615,19.00585 17.54386,21.34503 10.08772,2.33918 16.4592,3.12124 16.4592,3.12124 0,0 -1.70172,-3.0566 -3.23896,-6.8442 -1.53724,-3.7876 -2.91,-8.3062 -2.25211,-11.23018 1.31579,-5.84795 3.98501,-9.56098 3.98501,-9.56098 0,0 10.04686,-9.69641 15.74862,-9.84261 5.70175,-0.14619 17.25146,-1.16959 20.76023,-3.21637 3.50878,-2.04678 10.08772,-13.45029 11.69591,-12.8655 1.60819,0.5848 11.98829,5.11696 11.98829,5.11696 l 2.193,21.92983 7.8948,9.06432" transform="matrix(.62985 0 0 .62363 -552.284 -243.14)"/>
    </g>
    <path fill="none" stroke-width="3" d="M1007.8339 672.20355c0 0 12.302-6.51282 13.3358-8.9939M928.95637 519.30722c0 0-4.03175 3.51485-2.99797 4.44526 1.03378.9304-.31013 1.86081 3.51486 2.06756 3.82499.20676 7.64998-.31013 9.82093 1.13716 2.17094 1.4473 7.75336 4.44526 7.85674 5.16891.10338.72365 1.96418 1.96419-.82703 3.3081-2.79121 1.34392-8.0635 4.34189-9.82093 4.13513-1.75742-.20676-6.30606-.20676-6.30606-.20676M928.17983 526.60819l0 2.41228" stroke-linecap="round" stroke-linejoin="round" transform="matrix(.62985 0 0 .62363 -552.284 -243.14)"/>
    <path fill="none" stroke-width="3" d="M927.81433 531.3231c0 0 1.13304 7.23684 1.86404 7.30994.73099.0731 4.93421-.2193 4.93421-.2193l-.2193-4.20322c0 0-2.54232 3.18788-5.07509 1.37876-2.53276-1.80912 3.56655-2.68783 3.56655-2.68783zM932.01755 716.66667c.87719-22.51462-1.60819-24.70761-1.60819-24.70761 0 0 10.08772-16.52046 11.25731-16.81286 1.16959-.2924 3.94737-9.50293 2.48538-9.94152-1.46199-.4386-1.46199-.4386-1.46199-.4386" stroke-linecap="round" stroke-linejoin="round" transform="matrix(.62985 0 0 .62363 -552.284 -243.14)"/>
    <path fill="none" stroke-width="3" d="M932.74854 716.08187c0 0-1.75439-21.34503 0-21.63743 1.75439-.29239 3.21637-1.16959 3.21637-1.16959l13.3041-15.35087 3.36257-10.67252c0 0 .2924 2.92398 1.16959 2.77778.87719-.1462 5.55556-3.94737 5.55556-3.94737 0 0 3.21637-2.48538 3.50877-3.36257.2924-.8772 2.77778-5.11696 2.77778-5.11696M958.62573 683.62573c0 0 4.53217-14.32749 14.03509-17.54386 9.50292-3.21637 16.95907-4.53216 16.37427-14.61988M971.92983 666.37427c4.97076-6.43275 7.30994-15.35088 7.30994-15.35088M928.3361 619.06716c-2.27432 15.09322-2.48108 15.92025-2.48108 15.92025 0 0-2.06756 6.82296 2.68783 6.40944" stroke-linecap="round" stroke-linejoin="round" transform="matrix(.62985 0 0 .62363 -552.284 -243.14)"/>
    <path fill="none" stroke-width="3" d="M933.71176 666.20762c-.41351-15.29997.62027-17.78105.62027-17.78105 0 0 24.1905-23.98374-8.0635-36.38912M925.23475 605.00773c0 0 12.40538-2.06756 15.09322-4.13513 2.68783-2.06756 1.8608-11.3716 1.8608-11.3716M925.54963 612.56156c0 0 14.98509.50967 13.5378-10.86193M918.61855 584.53885c.51689 5.16891 1.22857 6.43359 1.22857 6.43359M926.47529 584.95236l-.76698 6.77261M933.60839 590.84492l-.20676 4.54864M918.92868 593.326c0 0 3.20473-3.92837 7.33985.20675 4.13513 4.13513 3.92838 3.61824 3.92838 3.61824l2.69258-1.44482M930.19691 597.15099l4.34188 4.96215M909.06433 576.02339l4.53216-6.43275 16.81287.1462c0 0 11.8421-16.95906 1.02339-14.61988" stroke-linecap="round" stroke-linejoin="round" transform="matrix(.62985 0 0 .62363 -552.284 -243.14)"/>
    <path fill="none" stroke-width="3" d="M929.97076 570.46784c0 0 9.94152 2.33918 9.94152 3.50877 0 1.16959 3.36258 5.40935 3.36258 5.40935 0 0 3.65497-.1462 6.28655 2.33919 2.63157 2.48538 6.87134 11.25731 6.14035 11.9883-.731.73099 3.94736 1.46199 3.94736 1.46199 0 0 3.80117 9.21052 3.80117 14.61988 0 5.40936-2.04678 23.53801-4.97076 25.5848-2.92397 2.04678 6.87135-16.52047-1.02339-23.53802-7.89473-7.01754-14.48578-9.09612-15.21677-22.40021M1043.8597 421.49123l-28.0702 21.63742c0 0-13.1579 11.11112-36.25733 19.00585-23.09942 7.89474-11.40351 2.92398-11.40351 2.92398M1059.9415 525.87719c0 0-5.5555-8.77193-2.3392-31.28655 3.2164-22.51462 9.9416-56.72514 9.9416-56.72514M1056.7251 427.92398l-30.4093 48.53801c0 0-8.7719 14.03509-7.6023 21.34503M895.66859 446.52897c0 0 29.77292 18.91821 38.24993 21.60605 8.47701 2.68783 46.72694 19.84861 54.99719 25.84454 8.27026 5.99594 40.93779 29.35941 40.93779 29.35941l34.5283 25.22427c0 0 23.1567 22.94996 25.431 23.98374 2.2743 1.03378 5.5824-.20675 5.5824-.20675" stroke-linecap="round" stroke-linejoin="round" transform="matrix(.62985 0 0 .62363 -552.284 -243.14)"/>
    <path fill="none" stroke-width="3" d="M1079.475 593.01586c-3.1013-23.77698-4.3419-21.91617-3.1013-23.77698 1.2405-1.86081 3.7216-3.10135 2.8945-4.54864M1071.9298 592.25146c9.6491 10.67252 5.4774 10.93777 9.5709 11.37637M1077.924 605.99415c0 0-15.6433-1.90058-21.0527-21.63743" stroke-linecap="round" stroke-linejoin="round" transform="matrix(.62985 0 0 .62363 -552.284 -243.14)"/>
    <path fill="#fff" fill-rule="evenodd" stroke-width="3" d="m 1056.7251,583.33333 c 2.6316,16.66667 -0.2712,19.64876 -0.2712,19.64876 0,0 -9.8165,-0.35051 -12.5942,-33.39145" stroke-linecap="round" stroke-linejoin="round" transform="matrix(.62985 0 0 .62363 -552.284 -243.14)"/>
    <path fill="none" stroke-width="3" d="M1037.2807 584.06433c0 0 1.0234 21.19883 10.2339 22.36842 9.2105 1.16959 7.9356.0747 9.1052-3.58026M1056.8305 602.19343l-.7488.52568" stroke-linecap="round" stroke-linejoin="round" transform="matrix(.62985 0 0 .62363 -552.284 -243.14)"/>
    <path fill="none" stroke-width="3" d="M1050.1395 606.77271c0 0-25.7243-2.53295-26.8939-22.41599-1.1696-19.88304-1.7544-36.25731-1.7544-36.25731 0 0-14.4737.731-15.497-.73099-1.0234-1.46199-3.2164-14.32749 2.1929-15.20468 5.4094-.87719 5.5556-1.60819 9.9416 5.55556M1020.3216 550.2924c0 0-3.9473 19.44444-9.2105 16.81286" stroke-linecap="round" stroke-linejoin="round" transform="matrix(.62985 0 0 .62363 -552.284 -243.14)"/>
    <path fill="none" stroke-width="3" d="M1021.7836 579.53216c0 0-7.8947 19.29825-18.2748 2.48538-10.38014-16.81286 10.2339-35.38011 10.2339-35.38011l7.0175 1.02339M995.61404 666.22807c0 0 4.97076-19.73684 5.26316-23.24561.2924-3.50878 2.924-21.05264 2.924-21.05264l5.7017-8.18713" stroke-linecap="round" stroke-linejoin="round" transform="matrix(.62985 0 0 .62363 -552.284 -243.14)"/>
    <path fill="none" stroke-width="3" d="M1003.8012 630.40936c0 0 9.9415 2.63157 11.9883-14.03509 2.0468-16.66667 2.3392-18.85965 2.3392-18.85965l6.1403-6.28655M982.01755 629.53216l5.40935.2924 6.14035-5.55556.8772-13.88888 1.90058-7.16375-4.82456 8.62573c0 0-7.30994 1.16959-9.35673 3.21638-2.04678 2.04678-3.65497 7.45614-2.92397 8.18713M963.45029 627.77778c0 0 4.53217 7.89473 6.87135.29239 2.33918-7.60233 9.50292-26.90058 19.59064-29.09356 10.08772-2.19299-5.55555-10.67252-11.11111-9.79532-5.55555.87719 7.60234-9.06433 13.59649-11.40351 5.99415-2.33918 8.18714-2.48538 7.01755 1.90058-1.16959 4.38597-11.11111 11.69591-11.11111 11.69591M982.16374 583.33333c0 0 4.67837-18.27485 2.33919-24.4152-2.33919-6.14035 8.77193-14.61989 8.77193-14.61989 0 0 4.38596 6.87135 8.77194 3.80117 4.386-3.07017 3.5645-2.74089 3.5645-2.74089" stroke-linecap="round" stroke-linejoin="round" transform="matrix(.62985 0 0 .62363 -552.284 -243.14)"/>
    <path fill="none" stroke-width="3" d="M985.01462 566.95906c0 0 1.09649 1.53509 5.84796-4.16666 4.75146-5.70176 14.54682-6.79825 14.54682-6.79825M1077.2007 580.92061c0 0-6.6162 6.92634-5.3757-25.32765M1063.6581 578.02603c0 0-1.2405 1.44729-4.0317-23.88037M1060.1433 554.97269l-1.7574-10.4412 0 0M1048.048 537.60515c0 0 6.0993 13.7493 4.7554 19.4351-1.3439 5.6858-1.9642 7.54661-1.9642 7.54661M1039.571 531.81598l.6203 13.12903M1001.1696 610.38012c0 0 6.1403-12.28071 8.1871-11.98831M919.00585 492.25146c0 0 15.49708-19.00585 8.18713-25.1462-7.30994-6.14035-7.30994-6.14035-7.30994-6.14035M1000.8772 505.99415c0 0-2.04679 19.29825 1.1696 16.37427M1021.345 517.98246c0 0 12.8655 16.37426 11.9883 28.07017-.8772 11.69591 2.3392 29.82456 2.3392 29.82456M988.88889 496.19883c0 0-11.40351 7.01754-.58479 27.04678 10.81871 20.02924 4.82456 20.90644 4.82456 20.90644" stroke-linecap="round" stroke-linejoin="round" transform="matrix(.62985 0 0 .62363 -552.284 -243.14)"/>
    <path fill="none" stroke-width="3" d="m 963.0117,530.55555 c 0,0 -7.74854,-29.82456 -16.66667,-31.43274 -8.91813,-1.60819 -16.08187,-3.36258 -18.12865,-1.0234 -2.04679,2.33919 -5.40936,9.21053 1.31579,9.79533 6.72514,0.58479 19.88304,4.67836 22.22222,14.18128 2.33918,9.50293 9.79532,11.54971 9.79532,11.54971 z" stroke-linejoin="round" transform="matrix(.62985 0 0 .62363 -552.284 -243.14)"/>
    <path fill="none" stroke-width="3" d="M1055.0778 406.83175c0 0-2.171-11.99187 7.4432-11.99187 9.6142 0 13.6459 2.89459 13.956 3.3081.3102.41352 10.0277 12.30201 3.9284 16.85065-6.0993 4.54864-8.7871 5.06553-8.7871 5.06553M1063.5965 410.52631c0 0 .4386-9.64912 13.0117-9.94152" transform="matrix(.62985 0 0 .62363 -552.284 -243.14)" stroke-linecap="round" stroke-linejoin="round"/>
    <path fill-rule="evenodd" d="M897.18777 447.46397l26.98642 16.81121c0 0 9.2904 3.9816 1.7696 17.03241-7.52081 13.05081-7.52081 11.72361-7.52081 11.72361 0 0-21.45641-13.05081-21.01401-14.82041.4424-1.7696-11.28121-14.15681-11.28121-14.15681 0 0-6.636-13.05081-2.6544-14.59921 3.9816-1.5484 13.71441-1.9908 13.71441-1.9908zM1054.6823 407.20555c0 0 .8848-10.17521 3.5392-11.72361 2.6544-1.5484 16.59 1.5484 16.59 1.5484l2.4332 3.0968-9.0692 2.6544-5.7512 8.84801zM1076.3599 571.33605l3.0968 21.67761 18.802 1.3272 5.7512-4.2028-7.5208-17.69601-6.4148.6636-7.742-6.8572-3.318.2212z" transform="matrix(.62985 0 0 .62363 -552.284 -243.14)"/>
  </g>
  <path stroke="#000" stroke-width=".1" d="m 1339.1558,711.73381 c -0.041,-0.12009 -0.1098,-0.43404 -0.1098,-0.50087 0,-0.11511 0.1162,-0.13801 0.1371,-0.027 0.041,0.22102 0.054,0.56693 0.021,0.56693 -0.019,0 -0.041,-0.0176 -0.048,-0.0391 z" stroke-linecap="round" stroke-linejoin="round" transform="matrix(.62985 0 0 .62363 -751.682 -240.018)"/>
  <path stroke="#000" stroke-width=".1" d="m 1339.1558,711.73381 c -0.041,-0.12009 -0.1098,-0.43404 -0.1098,-0.50087 0,-0.11511 0.1162,-0.13801 0.1371,-0.027 0.041,0.22102 0.054,0.56693 0.021,0.56693 -0.019,0 -0.041,-0.0176 -0.048,-0.0391 z" stroke-linecap="round" stroke-linejoin="round" transform="matrix(.62985 0 0 .62363 -751.682 -240.018)"/>
  <path stroke="#000" stroke-width=".1" d="m 1339.2048,711.44214 c 0,-0.0364 0.01,-0.0438 0.019,-0.0189 0.01,0.0226 0.01,0.0495 0,0.0599 -0.01,0.0104 -0.018,-0.008 -0.016,-0.041 z" stroke-linecap="round" stroke-linejoin="round" transform="matrix(.62985 0 0 .62363 -751.682 -240.018)"/>
  <path stroke="#000" stroke-width="3" d="M1338.1 711.3H1339.6V713.5999999999999H1338.1z" stroke-linecap="round" stroke-linejoin="round" transform="matrix(.62985 0 0 .62363 -751.682 -240.018)"/>
  <path stroke="#000" stroke-width="2.6" d="M1338.7 710.9H1340.2V714.1999999999999H1338.7z" stroke-linecap="round" stroke-linejoin="round" transform="matrix(.62985 0 0 .62363 -751.682 -240.018)"/>
  <path stroke="#000" stroke-width="3" d="M1333.5 695.6H1334.5V695.9H1333.5zM1215.3 441.8H1216V442.8H1215.3zM1246.3 462.6H1246.3999999999999V464.3H1246.3zM1335.8 551.7H1338.5V555.4000000000001H1335.8zM1356.7 597.5H1357.3V598.1H1356.7zM1375.7 588.9H1376.4V589.9H1375.7z" stroke-linecap="round" stroke-linejoin="round" transform="matrix(.62985 0 0 .62363 -751.682 -240.018)"/>
  <path fill="#fff" stroke="#000" stroke-width="3" d="M1404.1 618.2H1404.8V619.1H1404.1z" stroke-linecap="round" stroke-linejoin="round" transform="matrix(.62985 0 0 .62363 -751.682 -240.018)"/>
  <path fill="#fff" stroke="#000" stroke-width=".4" d="m 1392.1437,574.84607 c -0.8458,-0.93619 -1.684,-4.23064 -2.034,-7.99435 -0.081,-0.86885 -0.075,-0.89543 0.1791,-0.82899 0.1443,0.0377 0.3459,-5.8e-4 0.4478,-0.0852 0.1481,-0.12288 0.1953,-0.11956 0.2345,0.0165 0.07,0.24114 1.2919,6.85897 1.4697,7.95731 0.1614,0.99675 0.057,1.32625 -0.2971,0.93472 z" stroke-linecap="round" stroke-linejoin="round" transform="matrix(.62985 0 0 .62363 -751.682 -240.018)"/>
  <path stroke="#000" stroke-width="3" d="M1387.5 551.4H1392.8V553.6999999999999H1387.5zM1366.4 532.3H1368.2V538.5999999999999H1366.4zM1356.4 526.6H1360.8000000000002V529.1H1356.4zM1339.8 515.4H1344.8V518.5H1339.8zM1387.6 413H1388.1999999999998V414H1387.6zM1276.1 609H1278.1V610.3H1276.1zM1247.3 607.8H1249V608.5H1247.3zM1234.4 585.2H1234.5V586.4000000000001H1234.4zM1296.6 581.8H1296.6999999999998V583.1999999999999H1296.6zM1300.9 574.6H1301.8000000000002V577.1H1300.9zM1317.8 573.9H1317.8999999999999V576.6H1317.8zM1338 578.3H1340.1V579.0999999999999H1338zM1319.5 537.9H1320.3V539.6H1319.5z" stroke-linecap="round" stroke-linejoin="round" transform="matrix(.62985 0 0 .62363 -751.682 -240.018)"/>
  <path fill="#fff" stroke="#000" stroke-width=".7" d="m 1338.7103,710.47941 c -0.2859,-0.78692 -1.224,-5.22014 -1.5493,-7.32121 -0.2532,-1.63563 -0.3428,-3.25526 -0.2813,-5.0876 0.08,-2.39448 0.1688,-2.88684 0.8103,-4.5077 1.1946,-3.01778 4.6379,-8.32559 7.5173,-11.58749 0.4952,-0.56094 4.8607,-4.24002 9.7013,-8.17573 5.2781,-4.29144 10.1314,-8.4432 12.1246,-10.37192 9.6182,-9.30719 15.5525,-14.49126 18.8446,-16.46225 3.3125,-1.98312 6.853,-8.05885 9.9286,-17.03821 0.5428,-1.58453 1.2501,-3.33219 1.5718,-3.8837 0.3218,-0.55151 1.9786,-2.3963 3.6818,-4.09954 2.6858,-2.68579 3.1084,-3.03007 3.1844,-2.594 0.2195,1.26026 -2.3326,11.97645 -4.3054,18.07801 -2.0204,6.24883 -2.795,7.57482 -7.3841,12.64168 -6.484,7.15901 -22.0433,20.8321 -37.5678,33.01354 -5.3385,4.18889 -7.0742,5.92797 -10.8406,10.86141 -2.5473,3.33672 -3.936,5.50602 -4.5088,7.0435 -0.4135,1.10984 -0.4671,1.73351 -0.4738,5.50955 -0.01,3.78479 -0.1304,4.87132 -0.4536,3.98166 z" stroke-linecap="round" stroke-linejoin="round" transform="matrix(.62985 0 0 .62363 -751.682 -240.018)"/>
  <path fill="#fff" stroke="#000" stroke-width="1.3" d="m 1364.8872,599.84523 c -1.3742,-0.26077 -2.6884,-0.8704 -3.4699,-1.60953 -2.6296,-2.48728 -4.6668,-8.20032 -5.6175,-15.75398 -0.5768,-4.58235 -1.0999,-5.5024 -2.6551,-4.67008 -0.8894,0.476 -0.938,0.7312 -0.6586,3.4593 0.5792,5.65679 1.8473,10.63737 4.0033,15.72315 0.6009,1.4174 -6.5102,-2.59699 -9.2308,-5.21098 -2.8997,-2.78621 -4.9702,-6.70218 -5.557,-10.50992 -0.238,-1.54443 -0.7559,-10.17402 -1.1511,-19.17687 -0.8534,-19.44523 -0.9055,-19.99327 -1.9543,-20.55459 -0.4395,-0.23523 -2.6125,-0.66911 -4.8288,-0.96419 -3.621,-0.48211 -4.1128,-0.46128 -4.8494,0.20533 -0.8751,0.79202 -4.708,1.05357 -5.1422,0.35091 -0.1329,-0.21501 -0.4407,-1.79427 -0.6839,-3.50947 -0.4822,-3.39971 0.01,-7.36653 1.0325,-8.3932 0.322,-0.32201 1.6974,-0.70024 3.0565,-0.84052 l 2.4711,-0.25504 1.47,2.12356 c 2.4584,3.55151 3.1785,4.26775 3.9809,3.95985 0.4062,-0.15591 0.8592,-0.59756 1.0065,-0.98145 0.3514,-0.91582 -2.2047,-5.13713 -4.1516,-6.85599 -1.4753,-1.30257 -1.614,-1.33387 -4.8337,-1.09037 -3.8042,0.28772 -5.0583,0.99839 -6.4412,3.65023 -0.7481,1.43466 -0.9107,2.56959 -0.9151,6.38973 0,2.55486 -0.1674,4.89546 -0.3653,5.20134 -0.1979,0.30588 -0.9649,0.86904 -1.7044,1.25146 -1.5634,0.80845 -3.1749,0.35716 -4.7637,-1.33404 -0.7869,-0.83765 -0.8673,-1.20246 -0.4861,-2.20523 1.2285,-3.2312 -0.2973,-8.89505 -4.8422,-17.97402 -1.6496,-3.2952 -3.5393,-7.47588 -4.1993,-9.2904 -2.2418,-6.16259 -1.9164,-12.57549 0.8265,-16.29011 2.2786,-3.08592 2.2396,-3.09056 7.9013,0.93818 4.009,2.8527 4.9592,3.72173 4.4647,4.08332 -0.8043,0.58816 -1.6666,10.33016 -1.2732,14.38428 0.3614,3.72446 1.1457,4.96386 3.0257,4.7818 1.1116,-0.10765 1.4429,-0.36572 1.5632,-1.21781 0.095,-0.67438 -0.1545,-1.30625 -0.6636,-1.67929 -0.7352,-0.53869 -0.8047,-1.20002 -0.6999,-6.66079 0.064,-3.33449 0.264,-6.60982 0.4444,-7.2785 l 0.3281,-1.21578 8.3079,5.93305 c 8.1535,5.82276 8.3598,6.00983 11.1023,10.06379 3.7053,5.47735 6.1907,10.08255 7.8733,14.58834 1.3583,3.63743 1.3871,3.88022 1.7246,14.53801 0.1888,5.96135 0.6415,13.02869 1.0059,15.70521 0.3644,2.67652 0.8022,5.90794 0.9728,7.18093 0.3954,2.94987 1.0368,3.87262 2.3929,3.44222 0.9625,-0.30548 1.0056,-0.48001 0.7505,-3.04042 -0.1489,-1.49398 -0.5882,-5.00575 -0.9764,-7.80393 -0.3881,-2.79818 -0.8652,-9.96506 -1.0603,-15.92641 -0.4058,-12.39977 -0.574,-13.16368 -4.7144,-21.4039 -1.3304,-2.64763 -2.3436,-4.8891 -2.2517,-4.98104 0.092,-0.0919 2.3594,1.42056 5.0387,3.36111 l 4.8715,3.52827 0.2858,2.73427 c 0.1572,1.50385 0.288,4.1484 0.2907,5.87678 0.01,4.63568 0.3856,6.38441 1.4551,6.72387 1.6516,0.52419 1.9618,-0.67128 1.7307,-6.67028 -0.1174,-3.04584 -0.064,-5.53789 0.1189,-5.53789 0.1827,0 1.2935,0.70562 2.4683,1.56803 1.8583,1.36406 2.3183,2.04026 3.5363,5.1982 1.9249,4.99087 2.9595,8.46685 3.4404,11.55964 0.4064,2.61354 0.1178,4.86052 -1.2885,10.03013 -0.6364,2.3394 -0.3541,3.49682 0.853,3.49682 1.3172,0 1.7353,-0.83148 2.9474,-5.86128 1.2881,-5.34494 1.1455,-7.54768 -0.9335,-14.42413 -0.6145,-2.03247 -1.0087,-3.804 -0.8759,-3.93672 0.2118,-0.21183 1.9245,0.85625 4.3432,2.70843 0.8459,0.64777 1.3836,3.86997 2.9993,17.9745 1.3367,11.66844 2.4055,16.4539 3.7941,16.98674 1.5249,0.58516 2.7268,-0.93661 1.9242,-2.4363 -0.9302,-1.73812 -3.8333,-20.75287 -3.3001,-21.61551 0.1931,-0.31245 -0.2708,-3.68473 -0.9026,-6.56193 -0.2059,-0.93764 -0.1435,-0.97635 0.786,-0.48708 0.5553,0.29234 2.7271,2.20609 4.8262,4.2528 l 3.8166,3.72128 0.2264,9.153 c 0.2992,12.08928 1.2273,15.6098 4.5706,17.33741 0.7063,0.36498 1.4063,0.83033 1.5554,1.03411 0.1492,0.20377 0.5255,2.49319 0.8362,5.0876 0.3108,2.5944 0.7938,5.01572 1.0735,5.3807 0.2797,0.36498 0.8416,1.40139 1.2487,2.30312 0.4072,0.90174 1.4677,2.44461 2.3566,3.4286 l 1.6164,1.78908 -1.4893,-0.006 c -1.3173,-0.006 -1.6234,-0.24971 -2.651,-2.114 -1.8423,-3.34226 -6.4859,-8.93963 -7.4162,-8.93963 -1.0644,0 -1.9963,1.12144 -1.5464,1.86082 0.1916,0.31481 1.5117,2.04006 2.9337,3.83389 2.4805,3.12924 5.0269,7.45528 4.6249,7.85726 -0.3366,0.33656 -4.4275,-1.20501 -6.9459,-2.61739 -1.3383,-0.75053 -3.6277,-2.5822 -5.0876,-4.07038 -3.9927,-4.06991 -5.6426,-7.19902 -7.9933,-15.15921 -0.2221,-0.75205 -2.3731,-0.70348 -2.6662,0.0602 -0.1294,0.33727 -0.011,2.25447 0.2641,4.26045 0.5406,3.94864 0.7146,11.81178 0.2712,12.25523 -0.6041,0.60411 -2.6084,-1.06731 -4.0636,-3.38881 -2.7357,-4.36407 -4.9256,-12.82926 -6.2439,-24.13648 -0.3437,-2.94782 -0.4198,-3.10354 -1.5802,-3.23702 -0.8123,-0.0934 -1.3115,0.10056 -1.496,0.58132 -0.4433,1.15526 1.1167,12.31819 2.4684,17.66268 0.6818,2.69557 1.8417,6.22692 2.5776,7.84745 1.4173,3.12128 4.3375,6.65848 6.3607,7.7047 1.1121,0.57507 1.1769,0.74336 0.7539,1.95684 -0.4187,1.20109 -0.638,1.32294 -2.2998,1.27818 -1.0103,-0.0272 -2.8323,-0.23838 -4.0489,-0.46924 z" stroke-linecap="round" stroke-linejoin="round" transform="matrix(.62985 0 0 .62363 -751.682 -240.018)"/>
  <path fill="#fff" stroke="#000" stroke-width="1.3" d="M1405.0619 564.49095c-1.1705-.9945-6.834-6.3711-12.5855-11.948-10.1158-9.80875-10.9536-10.50304-25.6592-21.26429-26.5928-19.45998-61.6342-44.44878-65.2736-46.54796-8.463-4.88147-32.4757-16.01154-46.1156-21.3749-8.5708-3.37017-12.0025-5.05438-21.4913-10.54751-10.2076-5.90923-16.2874-9.69473-16.4752-10.25789-.2016-.60498.6609-.88859 4.1441-1.36268 1.4963-.20367 3.1739-.1975 3.745.0138 1.3848.51228 25.7807 1.37786 30.3063 1.0753 8.8718-.59313 41.4889-8.74383 49.1261-12.27613 32.3471-14.96091 57.4206-25.71968 61.2601-26.28606 2.5133-.37075 6.8388.65889 9.672 2.30233 4.3868 2.54466 10.8757 10.1074 14.918 17.38691l1.3511 2.43321.2816 29.64081c.2935 30.90806.8342 51.02955 1.6211 60.3306.8713 10.29963 5.4458 24.35648 14.5396 44.67788 1.237 2.76431 2.2491 5.20304 2.2491 5.4194 0 .21637-.7842.39339-1.7427.39339-1.3972 0-2.1645-.35841-3.871-1.80817zm-27.8237-42.25799c.9331-.35804.8889-.91526-.3726-4.69915-3.6171-10.84937-2.7803-21.63343 4.9182-63.38316 1.8395-9.97612 3.3692-19.13381 3.3992-20.35041.049-1.97393-.052-2.22716-.9365-2.35281-.693-.0985-1.1246.16766-1.435.8848-.9881 2.28293-8.8055 46.57702-10.3938 58.89211-1.3098 10.15585-.7096 20.99661 1.5207 27.4686 1.2468 3.61817 1.7341 4.14086 3.2998 3.54002zm-40.3816-31.36308c.6652-7.27665 2.6664-11.08912 22.1181-42.1356 8.7266-13.92842 15.8665-25.61737 15.8665-25.97545 0-.99886-1.5075-1.64079-2.341-.99685-1.2316.9515-32.2133 50.81986-34.4352 55.42704-2.708 5.61528-3.8859 9.02008-4.2208 12.20069-.3823 3.63.026 4.88871 1.5282 4.71547 1.1473-.13229 1.2139-.27741 1.4842-3.2353zm-45.9561-30.36878c14.2866-4.73507 24.7772-9.45737 34.1244-15.36104 4.9227-3.10914 36.4951-27.287 36.8541-28.22254.2799-.72919-.6275-1.91929-1.4633-1.91929-.3315 0-7.5838 5.38637-16.1161 11.96971-8.5324 6.58334-17.4661 13.2491-19.8527 14.8128-5.551 3.63705-13.8511 7.95362-20.6109 10.71889-7.2093 2.94911-17.7987 6.43639-18.6051 6.12696-.8102-.31093-4.4996 1.42684-4.824 2.27221-.1299.33855-.021 1.01823.2427 1.5104.6188 1.15618 1.5007.99203 10.2509-1.9081zM1389.8828 560.32672c0-2.79818.1114-5.0876.2476-5.0876.1361 0 1.1315.73894 2.212 1.64208 2.2499 1.88072 2.4747 3.03309.8833 4.52811-.5946.55859-1.4002 1.68823-1.7903 2.51031-.3901.82209-.2428 5.6822-.4747 5.6822-.2429 0-1.0779-6.34526-1.0779-9.2751zM1252.7387 531.14337c0-1.71549-.2309-2.26633-1.4696-3.50501-.8663-.86627-2.1313-1.59377-3.0813-1.77199-1.9148-.35922-2.2087-.72761-1.819-2.28036.2928-1.16641.299-1.16794 4.1058-1.00513 3.7691.16119 3.8591.19221 7.9047 2.72303 2.2507 1.40799 4.0922 2.81353 4.0922 3.12342 0 .51736-6.4157 3.79563-8.7374 4.46459-.9296.26785-.9954.15224-.9954-1.74855zM1274.728 524.7007c-2.5116-2.21082-3.5138-3.81737-4.7194-7.56536-1.8206-5.66025-4.8985-8.99758-11.2461-12.19416-3.0754-1.54877-10.3814-3.6749-12.628-3.6749-1.5223 0-2.2438-.74538-2.2438-2.3181 0-1.32349 1.4195-4.49173 2.2396-4.99856 1.3924-.86053 15.0357.88817 17.7438 2.27428 1.3616.6969 3.706 3.48133 5.3823 6.39245 2.8775 4.99704 8.9625 21.78092 8.4145 23.20902-.3718.96888-.7123.83875-2.9429-1.12467z" stroke-linecap="round" stroke-linejoin="round" transform="matrix(.62985 0 0 .62363 -751.682 -240.018)"/>
  <path fill="#fff" stroke="#000" stroke-width="1.3" d="m 1281.6847,622.69186 -1.8008,-1.99135 0.5602,-3.42168 c 0.3081,-1.88192 0.6989,-5.82287 0.8684,-8.75767 0.3471,-6.01073 -0.209,-9.4803 -2.5665,-16.0121 -1.1309,-3.13327 -1.485,-3.68692 -2.4921,-3.89735 -1.8234,-0.38096 -2.431,-0.83166 -2.7551,-2.04387 -0.6622,-2.47583 -4.2681,-8.66478 -6.1519,-10.55847 -1.43,-1.43761 -2.6349,-2.18467 -4.2133,-2.61245 -2.7908,-0.75637 -3.1326,-1.03419 -4.7092,-3.82783 -1.3557,-2.40217 -2.9712,-3.40798 -7.3447,-4.57287 -1.0341,-0.27544 -1.8802,-0.5784 -1.8802,-0.67324 0,-0.0949 0.7001,-1.34762 1.5557,-2.78394 1.8902,-3.17321 3.3107,-7.07962 3.3107,-9.10481 0,-2.94042 -2.7914,-4.7657 -5.9724,-3.90528 -2.3038,0.62316 -1.7695,3.30148 0.6283,3.14953 1.9499,-0.12356 2.2473,-0.006 2.2473,0.88964 0,1.32813 -1.5957,5.26914 -3.231,7.9798 l -1.4679,2.4332 -8.5819,0.2212 -8.5819,0.2212 -2.2301,3.1999 c -1.6625,2.38564 -2.4889,3.20181 -3.2474,3.2074 -0.5595,0.004 -1.6294,0.32404 -2.3776,0.71091 -1.7577,0.90896 -2.3785,0.34624 -3.2562,-2.95163 -0.8518,-3.20072 -0.813,-4.49592 0.2585,-8.63041 0.6214,-2.39729 0.9783,-5.51964 1.1333,-9.91418 0.2779,-7.87852 1.0802,-11.96292 3.2788,-16.69063 2.365,-5.08552 5.6447,-9.65427 10.9963,-15.31807 l 4.5917,-4.85957 -0.2376,-3.79648 c -0.146,-2.3308 -0.7202,-5.33362 -1.4876,-7.77808 -2.1312,-6.78947 -1.5726,-9.46114 3.5459,-16.95942 5.005,-7.33217 7.7722,-14.4361 7.122,-18.2843 -0.1577,-0.93318 -0.1795,-1.6967 -0.049,-1.6967 0.565,0 8.9288,3.20061 14.2176,5.44074 13.8532,5.86765 38.9673,17.98785 41.7403,20.14406 l 1.0394,0.80823 -1.3885,1.51329 c -0.7637,0.83231 -1.9282,2.60824 -2.5878,3.9465 -1.0981,2.22775 -1.1979,2.86279 -1.182,7.5208 0.021,6.1233 0.5214,7.77058 5.3094,17.47482 3.6129,7.3226 4.904,10.70422 5.3392,13.98515 l 0.2892,2.18028 -4.1714,4.30449 c -6.3206,6.52214 -6.6512,7.46759 -5.8834,16.82344 0.323,3.93594 -0.1092,8.01342 -1.6428,15.49861 -0.9223,4.5017 -0.9719,4.60533 -3.3044,6.90082 -2.4052,2.36714 -3.0164,4.05332 -1.815,5.00711 0.3042,0.24146 1.8948,0.54137 3.5346,0.66646 4.2064,0.32088 11.3965,3.87858 11.3965,5.63906 0,0.22447 -0.8461,0.63114 -1.8802,0.90372 -7.2706,1.91647 -13.6668,10.57337 -19.3689,26.21485 -1.171,3.21204 -2.3934,5.88697 -2.7166,5.9443 -0.3231,0.0573 -1.3979,-0.79189 -2.3884,-1.88713 z m -21.5495,-89.17501 c 5.7672,-2.89216 6.577,-3.89278 5.208,-6.43516 -0.9149,-1.69899 -3.5094,-3.5865 -8.5444,-6.21614 -2.534,-1.32339 -3.1584,-1.46142 -6.636,-1.46689 -6.156,-0.01 -6.9521,-0.52265 -4.4829,-2.88833 1.5844,-1.51799 1.6741,-3.43642 0.1706,-3.65138 -1.1714,-0.16748 -5.0566,3.88052 -5.0566,5.26843 0,0.53493 0.52,1.65431 1.1555,2.48752 0.9875,1.29464 1.1518,1.94399 1.1304,4.46576 -0.029,3.37182 0.9123,7.99156 1.9503,9.57577 0.5937,0.90607 1.138,1.1051 3.4329,1.25524 5.5045,0.36013 6.6454,0.12605 11.6722,-2.39482 z m 20.0048,-5.64772 c 1.1752,-2.50909 1.1514,-2.68939 -1.3637,-10.32027 -4.2057,-12.76005 -9.3063,-22.00693 -13.2696,-24.05647 -0.7397,-0.38247 -3.268,-1.06784 -5.6186,-1.52305 -10.9056,-2.11192 -14.6763,-1.97122 -16.6538,0.62141 -1.5981,2.09519 -2.5141,4.58154 -2.5141,6.82398 0,3.10999 1.5195,4.33934 6.4209,5.19486 9.0517,1.57995 15.6229,5.17284 18.4381,10.08119 0.7194,1.25439 1.3101,2.57933 1.3125,2.94431 0.01,1.28665 2.5974,6.1238 4.2765,7.9912 2.1251,2.36325 5.2687,4.39601 6.7983,4.39601 0.9607,0 1.3419,-0.37764 2.1735,-2.15317 z" stroke-linecap="round" stroke-linejoin="round" transform="matrix(.62985 0 0 .62363 -751.682 -240.018)"/>
  <path fill="#fff" stroke="#000" stroke-width="1.3" d="m 1276.7252,607.72832 c -0.4815,-0.81599 -2.8403,-3.07663 -5.2419,-5.02365 -7.8064,-6.32877 -9.8936,-9.3529 -10.7829,-15.62376 -0.5367,-3.7838 -1.1733,-4.76239 -2.6013,-3.9982 -0.8433,0.45133 -0.9366,0.88445 -0.9388,4.35659 0,5.37875 -0.5258,7.01258 -2.5065,7.84015 -2.2004,0.91942 -2.4138,0.86709 -3.8612,-0.9469 l -1.2825,-1.60736 0.9156,-0.71522 c 1.2537,-0.97934 1.8662,-6.21578 0.8279,-7.07754 -1.3882,-1.15207 -2.2515,-0.4213 -2.6529,2.24565 -0.4818,3.20091 -1.2645,3.56584 -3.2943,1.53598 l -1.5119,-1.51186 0.4242,-3.70493 c 0.4668,-4.07717 0.3937,-4.60909 -0.6901,-5.025 -1.0655,-0.40885 -2.2911,1.32394 -2.2983,3.24928 -0.011,2.91934 -0.3545,3.51553 -1.9985,3.46893 -1.6342,-0.0463 -1.7097,-0.18836 -2.2327,-4.19762 -0.343,-2.62949 -1.2881,-3.55635 -2.6276,-2.57688 -0.6667,0.48749 -0.7472,0.97339 -0.5041,3.04202 0.1592,1.35402 0.4237,2.81198 0.588,3.2399 0.244,0.63599 0.1431,0.71221 -0.5525,0.41747 -0.468,-0.19831 -1.4482,-0.4562 -2.1782,-0.57309 -2.7686,-0.44332 -3.6193,-2.29919 -4.1925,-9.14627 l -0.331,-3.95393 1.8193,-2.55971 1.8194,-2.55971 6.7741,-0.0118 c 4.6763,-0.008 7.4163,0.18577 8.848,0.62614 1.1407,0.35084 3.5365,1.08141 5.324,1.62347 1.878,0.5695 3.3562,1.28072 3.5014,1.6847 0.4906,1.36479 3.434,5.34371 4.0873,5.52516 0.365,0.10137 1.4043,0.30916 2.3096,0.46174 0.9053,0.15259 2.2416,0.77861 2.9696,1.39115 1.7565,1.47807 4.3329,5.78189 5.5553,9.28008 1.2142,3.47482 1.6385,4.00484 3.4832,4.3509 1.3785,0.25861 1.5193,0.46856 2.6266,3.91728 0.6435,2.00422 1.3697,4.5399 1.6137,5.63484 0.555,2.4907 0.6019,8.4056 0.066,8.4056 -0.2193,0 -0.7926,-0.66763 -1.274,-1.48363 z" stroke-linecap="round" stroke-linejoin="round" transform="matrix(.62985 0 0 .62363 -751.682 -240.018)"/>
  <path fill="#fff" stroke="#000" stroke-width="1.3" d="m 1260.0383,713.1465 c -0.9733,-0.21067 -3.3963,-0.71047 -5.3846,-1.11067 l -3.6151,-0.72762 -0.2382,-2.0523 c -0.1311,-1.12876 -0.3651,-5.66955 -0.5201,-10.09064 l -0.2819,-8.03834 1.7915,-0.80966 c 1.329,-0.60066 3.5605,-2.85883 8.6443,-8.74784 6.6645,-7.72 6.8841,-8.03869 7.9932,-11.59571 0.768,-2.46325 1.3237,-3.58719 1.7018,-3.44209 0.6848,0.26281 3.5394,-1.59869 7.3839,-4.81522 2.1966,-1.83772 3.2845,-3.18678 4.6068,-5.7128 1.8557,-3.54483 1.8793,-4.76363 0.092,-4.76363 -0.8862,0 -1.4036,0.5899 -2.8852,3.2894 -1.4495,2.64105 -2.4357,3.78262 -5.0035,5.79178 -2.9999,2.3473 -3.223,2.44663 -3.5995,1.60281 -0.5142,-1.15235 -1.5572,-1.55113 -2.3456,-0.89683 -0.3393,0.28162 -1.3536,2.89633 -2.254,5.81047 l -1.637,5.29845 -6.3603,7.35857 c -5.9036,6.83015 -8.4856,9.09528 -9.1472,8.02467 -0.418,-0.6763 8.4576,-14.4341 10.8649,-16.8414 1.0131,-1.0131 2.6264,-6.16091 2.7386,-8.73844 0.069,-1.58228 -0.1147,-2.11107 -0.9745,-2.80732 -1.2545,-1.01581 -3.0551,-0.91496 -3.738,0.20936 -0.3938,0.64858 -0.2966,0.95822 0.5084,1.61931 0.5475,0.44957 0.9954,1.20226 0.9954,1.67263 0,1.89531 -1.7905,5.86579 -3.758,8.33325 -1.1465,1.43798 -3.9328,5.54883 -6.1916,9.13524 l -4.1069,6.52073 0.6893,1.88487 c 0.5198,1.42133 0.7369,4.30567 0.8827,11.72828 0.1135,5.78106 0.027,9.84341 -0.2105,9.84341 -0.8696,0 -4.465,-2.61724 -5.8387,-4.25019 -0.7969,-0.94722 -3.2283,-5.31479 -5.4033,-9.70571 -6.0927,-12.30043 -6.4862,-16.29883 -2.8103,-28.55909 1.6365,-5.45842 1.6434,-5.51487 1.3927,-11.45785 -0.2302,-5.45772 -1.3836,-13.38853 -2.5088,-17.25069 -1.0403,-3.57105 0.1378,-19.43194 1.7582,-23.66937 1.418,-3.70828 4.674,-5.95494 8.6304,-5.95494 2.6365,0 5.0714,1.02959 8.9057,3.76565 6.2155,4.43529 8.4455,10.09772 6.5357,16.59564 -1.0094,3.43432 -3.3531,7.71637 -6.0405,11.03626 l -2.3225,2.86904 -0.1539,9.08972 c -0.137,8.09398 -0.072,9.15736 0.5901,9.70715 0.5436,0.45116 0.9425,0.49256 1.4811,0.15375 0.6339,-0.39872 0.7681,-1.67683 0.9583,-9.12295 0.208,-8.14016 0.2809,-8.73406 1.2164,-9.90706 5.9732,-7.4891 8.4043,-13.42112 7.9451,-19.38622 -0.4131,-5.36534 -3.095,-9.7729 -8.204,-13.4825 -1.4999,-1.08906 -2.7271,-2.13018 -2.7271,-2.31361 0,-0.18343 0.7466,-0.71749 1.659,-1.18679 3.0842,-1.58631 5.4194,-4.91399 5.4194,-7.72276 0,-1.07193 0.3819,-1.93235 1.2881,-2.90248 l 1.2881,-1.3789 0.9061,1.46605 c 1.0763,1.74162 5.1808,5.68386 9.823,9.43468 2.0188,1.63122 3.6836,3.38885 4.1904,4.424 1.2299,2.51234 1.0697,7.9752 -0.4072,13.88351 -1.3692,5.47759 -1.4432,6.89995 -0.3879,7.45296 1.8467,0.96768 3.9959,-1.55176 4.8142,-5.64357 0.1504,-0.75184 0.3678,-1.36699 0.483,-1.36699 0.1153,0 0.7569,0.58584 1.4258,1.30186 2.2068,2.36237 5.1881,2.33867 6.6425,-0.0528 0.4621,-0.75989 1.5594,-3.46366 2.4385,-6.00839 4.9212,-14.24648 11.4817,-23.3319 17.7977,-24.64749 2.3345,-0.48627 3.6706,-1.82504 3.6706,-3.67795 0,-1.2838 -0.3597,-1.97662 -1.7745,-3.41821 l -1.7745,-1.80806 3.5071,-3.18219 c 1.929,-1.7502 4.0713,-4.07235 4.7607,-5.16033 0.6895,-1.08799 1.3621,-1.98542 1.4948,-1.99431 0.1326,-0.009 1.2446,1.42718 2.471,3.19125 2.8239,4.06196 5.1421,5.72495 8.3517,5.99112 1.9978,0.16567 2.715,0.009 4.3597,-0.95535 1.0827,-0.63451 2.6707,-1.9989 3.5288,-3.03199 0.8582,-1.03309 1.688,-1.75057 1.8442,-1.59441 0.1562,0.15617 0.5506,1.54639 0.8765,3.08939 l 0.5925,2.80545 -3.0668,3.11503 -3.0668,3.11504 -1.308,10.37817 c -0.7194,5.708 -1.5392,11.37357 -1.8219,12.59018 -1.2914,5.55899 -4.3577,9.0692 -7.9224,9.0692 -1.1018,0 -1.3349,-0.15561 -1.1599,-0.7742 0.1204,-0.42581 0.3545,-1.84088 0.5203,-3.14461 0.2469,-1.94257 0.811,-3.10038 3.1255,-6.4148 2.9328,-4.19976 3.2683,-5.12133 2.1903,-6.01598 -1.0064,-0.8353 -1.7842,-0.11354 -5.0334,4.67085 l -3.0059,4.42605 -1.8539,13.02735 c -1.9651,13.80867 -5.699,30.80682 -6.9169,31.48841 -0.3401,0.19032 -2.6332,2.93216 -5.0957,6.09297 -2.4626,3.16081 -5.0239,6.02952 -5.6918,6.3749 -0.6679,0.34538 -2.7384,0.94278 -4.6012,1.32754 -3.9688,0.81979 -16.1046,1.89715 -16.534,1.46782 -0.424,-0.42405 1.7698,-4.58 3.9717,-7.52384 2.8239,-3.77536 5.1079,-5.29727 11.1155,-7.40644 6.2947,-2.20995 8.069,-3.06842 10.189,-4.92983 2.4493,-2.15047 3.454,-4.48448 3.4926,-8.11297 l 0.033,-3.09681 -1.3272,0 c -1.2985,0 -1.3327,0.0574 -1.5854,2.65441 -0.4945,5.0813 -2.2668,6.9843 -8.8255,9.47643 -1.3013,0.49444 -2.4182,0.8467 -2.4821,0.78282 -0.064,-0.0639 0.4987,-1.40296 1.2502,-2.97571 1.9496,-4.07999 3.508,-8.86351 3.202,-9.82789 -0.1838,-0.57911 -0.6019,-0.78445 -1.4023,-0.68878 -0.9713,0.11611 -1.2864,0.5628 -2.1245,3.01193 -2.4398,7.12975 -5.1241,11.76032 -7.6354,13.17179 -3.1829,1.78885 -7.3201,6.70128 -9.7769,11.60889 -1.2384,2.47381 -2.2517,4.74923 -2.2517,5.05648 0,0.30725 -1.3438,1.45425 -2.9862,2.54889 -5.678,3.78433 -8.4467,6.42937 -10.0385,9.59019 -3.7657,7.47766 -3.7776,11.56921 -0.059,20.38583 0.8248,1.95556 1.3687,3.53557 1.2087,3.51113 -0.1599,-0.0244 -1.0871,-0.21681 -2.0604,-0.42748 z m -14.0075,-75.56713 c 0.3255,-0.20629 0.5245,-0.85025 0.4424,-1.43103 -0.109,-0.77125 -0.4716,-1.09316 -1.3447,-1.19392 -1.5381,-0.17747 -1.8645,-1.24581 -1.2768,-4.17841 1.0483,-5.23078 2.6597,-16.71306 2.4296,-17.31272 -0.3551,-0.9254 -1.3058,-1.1771 -2.1406,-0.56671 -0.5253,0.38411 -1.0673,2.74569 -1.9984,8.70702 -0.7028,4.49898 -1.4153,9.00563 -1.5835,10.01478 -0.4045,2.42673 0.4211,4.85352 1.93,5.67293 1.3419,0.72877 2.6756,0.83724 3.542,0.28806 z m 61.9486,-14.23874 c 4.0069,-3.55386 3.7728,-2.87052 4.3097,-12.58005 0.1823,-3.29689 0.672,-6.68422 1.2923,-8.93874 0.7998,-2.90706 0.8922,-3.77589 0.4638,-4.36174 -1.0558,-1.44388 -2.1859,-0.50192 -4.6292,3.85838 -2.2641,4.04045 -2.4761,4.27541 -4.09,4.53348 -2.9411,0.47031 -6.4575,2.0173 -7.8705,3.46252 -1.3364,1.36694 -2.7444,4.49895 -3.2724,7.27933 -0.1942,1.02251 -0.037,1.6905 0.5727,2.4332 1.26,1.53506 2.3694,0.64446 2.7221,-2.18534 0.3818,-3.06352 1.8996,-5.61067 3.8728,-6.49933 0.8802,-0.39643 3.0349,-1.07689 4.7881,-1.51212 l 3.1876,-0.79133 -0.2221,3.57273 c -0.4384,7.05271 -0.4003,6.94035 -3.1812,9.386 l -2.5295,2.22464 -2.6723,-0.19441 c -2.1316,-0.15509 -2.7977,-0.0433 -3.2924,0.55273 -0.9529,1.14827 -0.023,2.17694 2.2492,2.48674 4.5288,0.61758 4.5319,0.61656 8.3013,-2.72669 z m 10.475,-16.67925 c 0.2539,-0.17877 1.623,-2.39034 3.0424,-4.91462 1.4193,-2.52427 3.3676,-5.35331 4.3295,-6.28674 1.9589,-1.90111 2.0319,-3.50168 0.1595,-3.50168 -1.5462,0 -3.1026,1.47349 -5.2721,4.9915 -3.65,5.91837 -4.7406,8.28484 -4.2449,9.21097 0.4674,0.87326 1.1955,1.05683 1.9856,0.50057 z" stroke-linecap="round" stroke-linejoin="round" transform="matrix(.62985 0 0 .62363 -751.682 -240.018)"/>
  <path fill="#fff" stroke="#000" stroke-width="1.3" d="M1243.2934 604.3453c-.5842-2.9212-.6397-2.87017 4.2471-3.90708 2.4941-.5292 5.0119-1.09191 5.5952-1.25047.9863-.26811 1.0383-.1983.7414.99695-.6684 2.69138-4.0368 4.95212-7.9857 5.35969l-2.3105.23846-.2875-1.43755zM1238.9088 597.72752c-.9151-.17748-1.7349-.40343-1.8217-.50213-.087-.0987-.262-1.92603-.3892-4.06074-.2053-3.4442-.1404-3.92996.576-4.3134 2.008-1.07461 3.0849-.54188 7.34 3.63099 2.2788 2.23471 4.1432 4.1911 4.1432 4.34753 0 .37001-5.2556 1.33718-6.9082 1.2713-.7019-.028-2.0249-.19608-2.9401-.37355zM1325.7269 581.17554c-.8473-.57749-2.1609-1.92128-2.919-2.9862-5.1706-7.26246-5.3714-13.96494-.6959-23.22712 1.5958-3.16129 6.3953-9.67921 7.4156-10.07073.3869-.14849 1.8952-.26998 3.3516-.26998 2.3137 0 2.6193.0977 2.4203.7742-.1252.42581-.5505 2.05034-.9451 3.61007-1.7811 7.0407-4.1084 11.36727-6.2525 11.62337-1.6425.19618-2.358 1.44475-1.3853 2.41741 2.1477 2.14766 5.4889-.0622 7.8548-5.19517 2.3012-4.9924 2.4887-4.55933 2.8982 6.69424l.2984 8.20052-1.4151 2.41709c-3.9569 6.75877-7.0026 8.48202-10.626 6.0123zM1300.8588 583.56173c-1.8807-.61325-3.4236-1.237-3.4286-1.38611-.019-.56495 7.8528-5.83209 10.9228-7.30867 3.7572-1.80714 6.3218-2.38024 6.3218-1.41272 0 1.77214-5.3433 7.83876-9.1481 10.3866-1.2359.82759-1.2823.82481-4.6679-.2791zM1301.6111 572.82453c.1768-1.03411.5797-3.56547.8953-5.62524.3572-2.33141.7992-3.82019 1.171-3.94413.3285-.10949 2.1972-1.73131 4.1527-3.60403 1.9555-1.87273 4.2284-3.75296 5.0509-4.1783 1.2328-.63754 6.0274-2.44571 6.485-2.44571.071 0-.4617 1.26168-1.1834 2.80374-1.5354 3.28109-2.6042 7.91899-2.6162 11.35307-.01 2.41259-.02 2.43403-1.4049 2.53148-2.1715.15284-5.6036 1.39356-9.0528 3.2726-1.7332.94419-3.3015 1.71672-3.4852 1.71672-.1836 0-.1892-.84609-.012-1.8802zM1303.1724 557.42582c0-.98719-.2241-2.68476-.498-3.77237-.7083-2.81295.2936-5.12888 3.9074-9.03212l2.9125-3.14578 1.3736 1.32936c1.4472 1.40052 4.094 2.7014 5.4964 2.7014.4582 0 1.7527-.48896 2.8766-1.08657 1.8781-.99859 2.1432-1.03464 3.2733-.44513.6764.3528 1.5846.64268 2.0183.64418.6337.002.441.46299-.9814 2.34704-1.6711 2.21325-1.9479 2.38701-4.9512 3.1078-4.79 1.14961-8.4664 3.10483-11.8632 6.30922-1.6546 1.56083-3.1334 2.83787-3.2863 2.83787-.1529 0-.278-.8077-.278-1.7949zM1384.6944 409.7384l-3.1975-3.49379.6416-2.16066c1.0934-3.68184 4.3144-6.0641 9.0803-6.71588l2.6905-.36795 1.0693 1.82454c1.3692 2.33633 2.425 5.33147 2.425 6.87912 0 1.68494-1.2986 3.16646-4.6069 5.25583-4.4432 2.80615-4.4121 2.81084-8.1023-1.22121z" stroke-linecap="round" stroke-linejoin="round" transform="matrix(.62985 0 0 .62363 -751.682 -240.018)"/>
  <path fill="#fff" stroke="#000" stroke-width=".2" d="m 1339.1942,712.15282 c -0.1535,-0.41226 -0.2938,-0.99221 -0.25,-1.03298 0.028,-0.0257 0.1042,-0.063 0.1701,-0.0829 0.1505,-0.0454 0.1645,8.8e-4 0.2127,0.70117 0.026,0.38266 0.019,0.53917 -0.025,0.53917 -0.034,0 -0.083,-0.056 -0.1081,-0.12442 z" stroke-linecap="round" stroke-linejoin="round" transform="matrix(.62985 0 0 .62363 -751.682 -240.018)"/>
  <path fill="#fff" d="M1339.2505 710.96076c-.01-.003-.019-.008-.03-.0119-.011-.003-.021-.007-.021-.008 0-.00086.01-.0146.019-.0305.01-.0159.022-.0344.025-.0411.013-.0246.017-.0158.021.0532 0 .0242 0 .0439-.0008.0438 0-.00008-.01-.003-.013-.006zM1339.4173 712.87003c0-.008-.1707-.51455-.1707-.52052 0-.003 0-.003.01-.00047.014.007.048.0112.066.008.01-.002.027-.009.038-.0153.01-.006.019-.0113.02-.0107.0009.001.049.53283.049.53922-.0001.002 0 .003 0 .003 0 0 0-.001-.01-.003z" transform="matrix(.62985 0 0 .62363 -751.682 -240.018)"/>
  <path stroke="#000" stroke-width="3" d="M1339.3 711.8H1340.2V715H1339.3z" stroke-linecap="round" stroke-linejoin="round" transform="matrix(.62985 0 0 .62363 -751.682 -240.018)"/>
  <path fill="#fff" stroke="#fff" stroke-width=".5" d="m 1331.729,693.17689 c -0.5096,-0.58433 -1.6587,-1.90479 -2.5535,-2.93435 l -1.6269,-1.87194 -1.0059,-10.05051 c -0.7127,-7.12079 -0.9481,-10.06978 -0.8076,-10.11663 0.1091,-0.0364 1.4551,-0.78385 2.991,-1.66107 5.5054,-3.14432 9.5258,-6.05972 10.2274,-7.41646 0.4853,-0.93857 0.3032,-1.79942 -0.4648,-2.19656 -0.8589,-0.44416 -1.1715,-0.32025 -2.4379,0.96634 -1.3512,1.37285 -4.708,3.6459 -9.0066,6.09883 -1.7414,0.99367 -2.8132,1.50535 -3.0052,1.43468 -0.1642,-0.0604 -2.5312,-1.06842 -5.2601,-2.24002 l -4.9616,-2.13019 1.3853,-5.68547 c 1.8736,-7.68974 3.2615,-13.9616 3.5856,-16.20369 0.1476,-1.02088 0.5474,-3.96421 0.8885,-6.54073 0.341,-2.57653 0.662,-4.8878 0.7132,-5.13617 0.091,-0.43911 0.1339,-0.45203 1.569,-0.4677 5.6469,-0.0616 9.8191,-4.61345 11.4051,-12.44301 0.2051,-1.01228 0.9185,-6.24511 1.5854,-11.62851 l 1.2126,-9.78801 2.272,-2.277 c 1.2496,-1.25235 2.3129,-2.27184 2.3629,-2.26552 0.05,0.006 0.5284,0.68905 1.0632,1.5172 3.2573,5.04446 9.0615,8.98104 16.731,11.34748 3.4453,1.06304 4.781,1.39949 6.4267,1.6188 2.1777,0.2902 5.5888,0.3022 6.5344,0.023 0.9916,-0.29282 1.9826,-1.27224 2.3477,-2.32035 1.3198,-3.78876 1.6076,-5.01968 2.0147,-8.61786 0.062,-0.55237 0.1641,-0.75194 0.3836,-0.75372 0.1642,-0.001 0.4589,-0.0455 0.655,-0.0982 0.2817,-0.0757 0.5294,0.13977 1.1816,1.02806 1.1828,1.61093 4.5811,4.82402 6.3481,6.00212 2.8783,1.9191 6.0596,3.35256 8.5982,3.87427 0.6116,0.12569 1.1049,0.32129 1.1049,0.43812 0,1.79517 0.8163,6.33421 1.3112,7.29134 0.5429,1.04989 2.6087,2.65335 6.1681,4.78773 l 1.5574,0.93383 -0.7619,0.63479 c -1.6854,1.40442 -5.559,5.34483 -6.719,6.83497 -1.538,1.9757 -1.6625,2.22488 -2.7639,5.53169 -1.7781,5.33812 -4.3265,10.70286 -6.3788,13.42785 -0.9759,1.29587 -1.3916,1.68332 -2.5778,2.40283 -3.2827,1.99125 -9.3062,7.2399 -18.2662,15.9165 -3.0148,2.91944 -5.5937,5.13599 -12.8665,11.05856 -9.5498,7.77688 -9.7379,7.95277 -12.6497,11.83132 -2.4922,3.31959 -4.6968,7.11937 -5.6236,9.69265 l -0.392,1.08846 -0.7839,0.0624 c -0.764,0.0608 -0.8074,0.0354 -1.7104,-1.00008 z" stroke-linecap="round" stroke-linejoin="round" transform="matrix(.62985 0 0 .62363 -751.682 -240.018)"/>
  <path d="m 1372.0897,596.03269 c -0.2988,-0.18078 -0.5916,-0.39546 -0.9069,-0.66483 -0.216,-0.18457 -0.7522,-0.71999 -0.9625,-0.96114 -0.4898,-0.56168 -0.9532,-1.18732 -1.4004,-1.89079 l -0.09,-0.14087 0.041,7.2e-4 c 0.039,6.9e-4 0.047,0.008 0.1407,0.12331 0.4596,0.56656 1.0503,1.16552 1.5182,1.53946 0.691,0.55219 1.2813,0.81448 1.7678,0.78548 0.1163,-0.007 0.2637,-0.0363 0.3379,-0.0673 0.035,-0.0145 0.039,-0.0144 0.039,0.001 0,0.01 -0.03,0.16463 -0.066,0.34471 -0.092,0.45827 -0.2332,1.00534 -0.2614,1.01474 -0.01,0.002 -0.077,-0.0359 -0.1579,-0.0846 l 0,0 z" transform="matrix(.62985 0 0 .62363 -751.682 -240.018)"/>
  <path stroke="#000" stroke-width="3" d="M1368.9 593.3H1369.4V593.8H1368.9zM1370.9 594.8H1371.3000000000002V595.1999999999999H1370.9z" stroke-linecap="round" stroke-linejoin="round" transform="matrix(.62985 0 0 .62363 -751.682 -240.018)"/>
</svg>
