<?xml version="1.0" standalone="no"?>
<!DOCTYPE svg PUBLIC "-//W3C//DTD SVG 1.1//EN" "http://www.w3.org/Graphics/SVG/1.1/DTD/svg11.dtd">

<svg xmlns="http://www.w3.org/2000/svg"
  width="600"
  height="800"
  >

  <!--white background-->
  <!--<g>
    <rect
      x="0"
      y="0"
      width="600"
      height="800"
      style="fill:#ffffff; fill-opacity:1;" />
  </g>-->

  <!--The grid system
  <g class="grid">
    <defs>
      <style type="text/css"><![CDATA[
        .grid path {
          stroke:#000000;
          stroke-opacity:0.3;
        }

        .grid path.sub-line {
          stroke-opacity:0.6;
        }

        .grid path.main-line {
          stroke-opacity:0.8;
        }
      ]]></style>
    </defs>
    <g>
      <path d="M  10,0 V 800" />
      <path d="M  20,0 V 800" />
      <path d="M  30,0 V 800" />
      <path d="M  40,0 V 800" />
      <path d="M  50,0 V 800" class="sub-line" />
      <path d="M  60,0 V 800" />
      <path d="M  70,0 V 800" />
      <path d="M  80,0 V 800" />
      <path d="M  90,0 V 800" />
      <path d="M 100,0 V 800" class="main-line" />
      <path d="M 110,0 V 800" />
      <path d="M 120,0 V 800" />
      <path d="M 130,0 V 800" />
      <path d="M 140,0 V 800" />
      <path d="M 150,0 V 800" class="sub-line" />
      <path d="M 160,0 V 800" />
      <path d="M 170,0 V 800" />
      <path d="M 180,0 V 800" />
      <path d="M 190,0 V 800" />
      <path d="M 200,0 V 800" class="main-line" />
      <path d="M 210,0 V 800" />
      <path d="M 220,0 V 800" />
      <path d="M 230,0 V 800" />
      <path d="M 240,0 V 800" />
      <path d="M 250,0 V 800" class="sub-line" />
      <path d="M 260,0 V 800" />
      <path d="M 270,0 V 800" />
      <path d="M 280,0 V 800" />
      <path d="M 290,0 V 800" />
      <path d="M 300,0 V 800" class="main-line" />
      <path d="M 310,0 V 800" />
      <path d="M 320,0 V 800" />
      <path d="M 330,0 V 800" />
      <path d="M 340,0 V 800" />
      <path d="M 350,0 V 800" class="sub-line" />
      <path d="M 360,0 V 800" />
      <path d="M 370,0 V 800" />
      <path d="M 380,0 V 800" />
      <path d="M 390,0 V 800" />
      <path d="M 400,0 V 800" class="main-line" />
      <path d="M 410,0 V 800" />
      <path d="M 420,0 V 800" />
      <path d="M 430,0 V 800" />
      <path d="M 440,0 V 800" />
      <path d="M 450,0 V 800" class="sub-line" />
      <path d="M 460,0 V 800" />
      <path d="M 470,0 V 800" />
      <path d="M 480,0 V 800" />
      <path d="M 490,0 V 800" />
      <path d="M 500,0 V 800" class="main-line" />
      <path d="M 510,0 V 800" />
      <path d="M 520,0 V 800" />
      <path d="M 530,0 V 800" />
      <path d="M 540,0 V 800" />
      <path d="M 550,0 V 800" class="sub-line" />
      <path d="M 560,0 V 800" />
      <path d="M 570,0 V 800" />
      <path d="M 580,0 V 800" />
      <path d="M 590,0 V 800" />
    </g>
    <g>
      <path d="M 0, 10 H 600" />
      <path d="M 0, 20 H 600" />
      <path d="M 0, 30 H 600" />
      <path d="M 0, 40 H 600" />
      <path d="M 0, 50 H 600" class="sub-line" />
      <path d="M 0, 60 H 600" />
      <path d="M 0, 70 H 600" />
      <path d="M 0, 80 H 600" />
      <path d="M 0, 90 H 600" />
      <path d="M 0,100 H 600" class="main-line" />
      <path d="M 0,110 H 600" />
      <path d="M 0,120 H 600" />
      <path d="M 0,130 H 600" />
      <path d="M 0,140 H 600" />
      <path d="M 0,150 H 600" class="sub-line" />
      <path d="M 0,160 H 600" />
      <path d="M 0,170 H 600" />
      <path d="M 0,180 H 600" />
      <path d="M 0,190 H 600" />
      <path d="M 0,200 H 600" class="main-line" />
      <path d="M 0,210 H 600" />
      <path d="M 0,220 H 600" />
      <path d="M 0,230 H 600" />
      <path d="M 0,240 H 600" />
      <path d="M 0,250 H 600" class="sub-line" />
      <path d="M 0,260 H 600" />
      <path d="M 0,270 H 600" />
      <path d="M 0,280 H 600" />
      <path d="M 0,290 H 600" />
      <path d="M 0,300 H 600" class="main-line" />
      <path d="M 0,310 H 600" />
      <path d="M 0,320 H 600" />
      <path d="M 0,330 H 600" />
      <path d="M 0,340 H 600" />
      <path d="M 0,350 H 600" class="sub-line" />
      <path d="M 0,360 H 600" />
      <path d="M 0,370 H 600" />
      <path d="M 0,380 H 600" />
      <path d="M 0,390 H 600" />
      <path d="M 0,400 H 600" class="main-line" />
      <path d="M 0,410 H 600" />
      <path d="M 0,420 H 600" />
      <path d="M 0,430 H 600" />
      <path d="M 0,440 H 600" />
      <path d="M 0,450 H 600" class="sub-line" />
      <path d="M 0,460 H 600" />
      <path d="M 0,470 H 600" />
      <path d="M 0,480 H 600" />
      <path d="M 0,490 H 600" />
      <path d="M 0,500 H 600" class="main-line" />
      <path d="M 0,510 H 600" />
      <path d="M 0,520 H 600" />
      <path d="M 0,530 H 600" />
      <path d="M 0,540 H 600" />
      <path d="M 0,550 H 600" class="sub-line" />
      <path d="M 0,560 H 600" />
      <path d="M 0,570 H 600" />
      <path d="M 0,580 H 600" />
      <path d="M 0,590 H 600" />
      <path d="M 0,600 H 600" class="main-line" />
      <path d="M 0,610 H 600" />
      <path d="M 0,620 H 600" />
      <path d="M 0,630 H 600" />
      <path d="M 0,640 H 600" />
      <path d="M 0,650 H 600" class="sub-line" />
      <path d="M 0,660 H 600" />
      <path d="M 0,670 H 600" />
      <path d="M 0,680 H 600" />
      <path d="M 0,690 H 600" />
      <path d="M 0,700 H 600" class="main-line" />
      <path d="M 0,710 H 600" />
      <path d="M 0,720 H 600" />
      <path d="M 0,730 H 600" />
      <path d="M 0,740 H 600" />
      <path d="M 0,750 H 600" class="sub-line" />
      <path d="M 0,760 H 600" />
      <path d="M 0,770 H 600" />
      <path d="M 0,780 H 600" />
      <path d="M 0,790 H 600" />
    </g>
  </g>
-->
<mask id="parchemin"
  maskUnits="objectBoundingBox"
  maskContentUnits="objectBoundingBox">
  <circle cx=".5" cy=".5" r=".4" fill="gray" />
  <circle cx=".5" cy=".5" r=".3" fill="white" />
</mask>
  <!--<defs>
    <clipPath id="parchemin">-->
      <!--<path
        d="M10,9
        q-2,-6 8,-7
        q1,2 18,1
        q11,10 20,13
        q2,2 15,-5
        q-1,3 19,-5
        q0,-5 22,-6
        q-5,11 25,9
        q0,5 7,20
        l86,-25
        l358,0
        v800
        h-563
        z"
      stroke="#000000"
      />-->
      <!--<circle cx="50%" cy="50%" r="80"
      stroke="#ffffff"
      />-->
    <!--</clipPath>
  </defs>-->
</svg>
